<svg xmlns="http://www.w3.org/2000/svg" xmlns:xlink="http://www.w3.org/1999/xlink" width="40" zoomAndPan="magnify" viewBox="0 0 30 30.000001" height="40" preserveAspectRatio="xMidYMid meet" version="1.0"><defs><clipPath id="77176b68b6"><path d="M 0.484375 0 L 28 0 L 28 29.03125 L 0.484375 29.03125 Z M 0.484375 0 " clip-rule="nonzero"/></clipPath><clipPath id="f02963251b"><path d="M 0.484375 0 L 29.515625 0 L 29.515625 28 L 0.484375 28 Z M 0.484375 0 " clip-rule="nonzero"/></clipPath><clipPath id="573d39be23"><path d="M 0.484375 0 L 29.515625 0 L 29.515625 29.03125 L 0.484375 29.03125 Z M 0.484375 0 " clip-rule="nonzero"/></clipPath></defs><g clip-path="url(#77176b68b6)"><path stroke-linecap="round" transform="matrix(-0.248539, -0.681926, 0.681926, -0.248539, 10.203854, 29.525152)" fill="none" stroke-linejoin="miter" d="M 2.000356 1.999665 L 39.698856 1.997383 " stroke="#000000" stroke-width="4" stroke-opacity="1" stroke-miterlimit="4"/></g><g clip-path="url(#f02963251b)"><path stroke-linecap="round" transform="matrix(0.681191, 0.250548, -0.250548, 0.681191, 0.984733, -0.184332)" fill="none" stroke-linejoin="miter" d="M 2.002377 1.999922 L 40.61845 2.000792 " stroke="#000000" stroke-width="4" stroke-opacity="1" stroke-miterlimit="4"/></g><g clip-path="url(#573d39be23)"><path stroke-linecap="round" transform="matrix(-0.529922, 0.495962, -0.495962, -0.529922, 30.331346, 11.5502)" fill="none" stroke-linejoin="miter" d="M 2.818118 2.776478 C 13.158583 17.002413 23.495355 16.968657 33.835788 2.66735 " stroke="#000000" stroke-width="4" stroke-opacity="1" stroke-miterlimit="4"/></g></svg>