<svg xmlns="http://www.w3.org/2000/svg" xmlns:xlink="http://www.w3.org/1999/xlink" width="40" zoomAndPan="magnify" viewBox="0 0 30 30.000001" height="40" preserveAspectRatio="xMidYMid meet" version="1.0"><defs><clipPath id="5b02936580"><path d="M 0.484375 0 L 29.515625 0 L 29.515625 29.03125 L 0.484375 29.03125 Z M 0.484375 0 " clip-rule="nonzero"/></clipPath><clipPath id="594cec5b89"><path d="M 2.199219 12.171875 C 3.046875 13.1875 3.046875 15.882812 2.207031 16.902344 C 1.152344 18.183594 0.519531 19.824219 0.519531 21.605469 C 0.519531 25.722656 3.855469 29.03125 7.925781 29.03125 C 9.71875 29.03125 11.359375 28.402344 12.640625 27.347656 C 13.660156 26.507812 16.371094 26.507812 17.394531 27.347656 C 18.675781 28.402344 20.316406 29.03125 22.109375 29.03125 C 26.179688 29.03125 29.515625 25.722656 29.515625 21.605469 C 29.515625 19.8125 28.863281 18.160156 27.789062 16.875 C 26.945312 15.863281 26.945312 13.203125 27.789062 12.191406 C 28.863281 10.902344 29.515625 9.242188 29.515625 7.425781 C 29.515625 3.34375 26.179688 0 22.109375 0 C 20.332031 0 18.710938 0.617188 17.4375 1.648438 C 16.398438 2.488281 13.585938 2.480469 12.546875 1.640625 C 11.28125 0.613281 9.664062 0 7.890625 0 C 3.820312 0 0.484375 3.34375 0.484375 7.425781 C 0.484375 9.230469 1.128906 10.886719 2.199219 12.171875 Z M 2.199219 12.171875 " clip-rule="nonzero"/></clipPath></defs><g clip-path="url(#5b02936580)"><g clip-path="url(#594cec5b89)"><path stroke-linecap="butt" transform="matrix(0.725806, 0, 0, 0.725806, 0.48387, 0.00000193548)" fill="none" stroke-linejoin="miter" d="M 2.363369 16.770135 C 3.53125 18.169441 3.53125 21.882982 2.374132 23.28767 C 0.921008 25.052947 0.0491326 27.313364 0.0491326 29.76753 C 0.0491326 35.4401 4.645313 39.998606 10.253299 39.998606 C 12.723611 39.998606 14.984028 39.132113 16.749305 37.678988 C 18.153993 36.52187 21.889062 36.52187 23.299131 37.678988 C 25.064409 39.132113 27.324826 39.998606 29.795138 39.998606 C 35.403124 39.998606 39.999304 35.4401 39.999304 29.76753 C 39.999304 27.297218 39.100519 25.020656 37.620485 23.249996 C 36.457985 21.856073 36.457985 18.190969 37.620485 16.797045 C 39.100519 15.021003 39.999304 12.733677 39.999304 10.231073 C 39.999304 4.606942 35.403124 -0.00000266667 29.795138 -0.00000266667 C 27.346353 -0.00000266667 25.112846 0.850345 23.358333 2.271178 C 21.926736 3.428296 18.051736 3.417532 16.620139 2.260414 C 14.876389 0.844963 12.648264 -0.00000266667 10.204861 -0.00000266667 C 4.596875 -0.00000266667 0.000695111 4.606942 0.000695111 10.231073 C 0.000695111 12.717531 0.888716 14.999476 2.363369 16.770135 Z M 2.363369 16.770135 " stroke="#000000" stroke-width="8" stroke-opacity="1" stroke-miterlimit="4"/></g></g></svg>