<svg xmlns="http://www.w3.org/2000/svg" xmlns:xlink="http://www.w3.org/1999/xlink" width="40" zoomAndPan="magnify" viewBox="0 0 30 30.000001" height="40" preserveAspectRatio="xMidYMid meet" version="1.0"><defs><clipPath id="b4d90481c1"><path d="M 0.484375 0 L 29.515625 0 L 29.515625 29.03125 L 0.484375 29.03125 Z M 0.484375 0 " clip-rule="nonzero"/></clipPath><clipPath id="d280b8cf04"><path d="M 0.484375 0 L 29.515625 0 L 29.515625 18 L 0.484375 18 Z M 0.484375 0 " clip-rule="nonzero"/></clipPath><clipPath id="af7d0b58e4"><path d="M 11 0 L 29.515625 0 L 29.515625 29.03125 L 11 29.03125 Z M 11 0 " clip-rule="nonzero"/></clipPath></defs><g clip-path="url(#b4d90481c1)"><path stroke-linecap="butt" transform="matrix(0.510486, -0.515945, 0.515945, 0.510486, -0.548376, 28.010432)" fill="none" stroke-linejoin="miter" d="M 0.000983712 2.000694 L 53.173704 2.001907 " stroke="#000000" stroke-width="4" stroke-opacity="1" stroke-miterlimit="4"/></g><g clip-path="url(#d280b8cf04)"><path stroke-linecap="round" transform="matrix(0.72579, 0.00490398, -0.00490398, 0.72579, 8.032258, -0.145074)" fill="none" stroke-linejoin="miter" d="M 1.998109 2.000141 L 27.600598 1.999377 " stroke="#000000" stroke-width="4" stroke-opacity="1" stroke-miterlimit="4"/></g><g clip-path="url(#af7d0b58e4)"><path stroke-linecap="round" transform="matrix(-0.000165675, -0.725806, 0.725806, -0.000165675, 26.615539, 21.482271)" fill="none" stroke-linejoin="miter" d="M 1.998728 1.999428 L 27.600638 1.99989 " stroke="#000000" stroke-width="4" stroke-opacity="1" stroke-miterlimit="4"/></g></svg>