<svg xmlns="http://www.w3.org/2000/svg" xmlns:xlink="http://www.w3.org/1999/xlink" width="40" zoomAndPan="magnify" viewBox="0 0 30 30.000001" height="40" preserveAspectRatio="xMidYMid meet" version="1.0"><defs><clipPath id="af01718da3"><path d="M 0.484375 0 L 29.515625 0 L 29.515625 29.03125 L 0.484375 29.03125 Z M 0.484375 0 " clip-rule="nonzero"/></clipPath><clipPath id="6c0b051010"><path d="M 0.484375 0 L 29.515625 0 L 29.515625 18 L 0.484375 18 Z M 0.484375 0 " clip-rule="nonzero"/></clipPath><clipPath id="5d721d26f9"><path d="M 11 0 L 29.515625 0 L 29.515625 29.03125 L 11 29.03125 Z M 11 0 " clip-rule="nonzero"/></clipPath></defs><g clip-path="url(#af01718da3)"><path stroke-linecap="butt" transform="matrix(0.513223, -0.513223, 0.513223, 0.513223, -2.559704, 25.287749)" fill="none" stroke-linejoin="miter" d="M -0.000197879 1.996501 L 56.570186 2.000307 " stroke="#000000" stroke-width="4" stroke-opacity="1" stroke-miterlimit="4"/><path stroke-linecap="butt" transform="matrix(0.513223, -0.513223, 0.513223, 0.513223, 1.47327, 30.720781)" fill="none" stroke-linejoin="miter" d="M 0.00138 1.999174 L 56.567959 1.999174 " stroke="#000000" stroke-width="4" stroke-opacity="1" stroke-miterlimit="4"/></g><g clip-path="url(#6c0b051010)"><path stroke-linecap="round" transform="matrix(0.72579, 0.00490398, -0.00490398, 0.72579, 8.032258, -0.145076)" fill="none" stroke-linejoin="miter" d="M 1.998109 2.000143 L 27.600598 1.999379 " stroke="#000000" stroke-width="4" stroke-opacity="1" stroke-miterlimit="4"/></g><g clip-path="url(#5d721d26f9)"><path stroke-linecap="round" transform="matrix(-0.000165675, -0.725806, 0.725806, -0.000165675, 26.615539, 21.482267)" fill="none" stroke-linejoin="miter" d="M 1.998723 1.999428 L 27.600633 1.99989 " stroke="#000000" stroke-width="4" stroke-opacity="1" stroke-miterlimit="4"/></g></svg>