<svg xmlns="http://www.w3.org/2000/svg" xmlns:xlink="http://www.w3.org/1999/xlink" width="40" zoomAndPan="magnify" viewBox="0 0 30 30.000001" height="40" preserveAspectRatio="xMidYMid meet" version="1.0"><defs><clipPath id="099a45e813"><path d="M 0.484375 0 L 29.515625 0 L 29.515625 29.03125 L 0.484375 29.03125 Z M 0.484375 0 " clip-rule="nonzero"/></clipPath><clipPath id="b36e014f77"><path d="M 15 0 C 6.984375 0 0.484375 6.5 0.484375 14.515625 C 0.484375 22.53125 6.984375 29.03125 15 29.03125 C 23.015625 29.03125 29.515625 22.53125 29.515625 14.515625 C 29.515625 6.5 23.015625 0 15 0 Z M 15 0 " clip-rule="nonzero"/></clipPath></defs><g clip-path="url(#099a45e813)"><g clip-path="url(#b36e014f77)"><path stroke-linecap="butt" transform="matrix(0.725806, 0, 0, 0.725806, 0.48387, 0.00000193548)" fill="none" stroke-linejoin="miter" d="M 20.000001 -0.00000266667 C 8.956251 -0.00000266667 0.000695111 8.955553 0.000695111 19.999303 C 0.000695111 31.043053 8.956251 39.998609 20.000001 39.998609 C 31.043751 39.998609 39.999307 31.043053 39.999307 19.999303 C 39.999307 8.955553 31.043751 -0.00000266667 20.000001 -0.00000266667 Z M 20.000001 -0.00000266667 " stroke="#000000" stroke-width="8" stroke-opacity="1" stroke-miterlimit="4"/></g></g></svg>