<svg xmlns="http://www.w3.org/2000/svg" xmlns:xlink="http://www.w3.org/1999/xlink" width="40" zoomAndPan="magnify" viewBox="0 0 30 30.000001" height="40" preserveAspectRatio="xMidYMid meet" version="1.0"><defs><clipPath id="531d1a9cea"><path d="M 0.484375 0 L 4 0 L 4 29.03125 L 0.484375 29.03125 Z M 0.484375 0 " clip-rule="nonzero"/></clipPath><clipPath id="95bdeb52ca"><path d="M 26 0 L 29.515625 0 L 29.515625 29.03125 L 26 29.03125 Z M 26 0 " clip-rule="nonzero"/></clipPath><clipPath id="d05149d7fc"><path d="M 0.484375 0 L 29.515625 0 L 29.515625 3 L 0.484375 3 Z M 0.484375 0 " clip-rule="nonzero"/></clipPath><clipPath id="2cb0352a1d"><path d="M 0.484375 26 L 29.515625 26 L 29.515625 29.03125 L 0.484375 29.03125 Z M 0.484375 26 " clip-rule="nonzero"/></clipPath></defs><g clip-path="url(#531d1a9cea)"><path stroke-linecap="round" transform="matrix(0, -0.725806, 0.725806, 0, 0.478408, 29.026377)" fill="none" stroke-linejoin="miter" d="M 2.000751 1.999541 L 38.000578 1.999541 " stroke="#000000" stroke-width="4" stroke-opacity="1" stroke-miterlimit="4"/></g><g clip-path="url(#95bdeb52ca)"><path stroke-linecap="round" transform="matrix(0, -0.725806, 0.725806, 0, 26.60744, 29.026377)" fill="none" stroke-linejoin="miter" d="M 2.000751 1.999368 L 38.000578 1.999368 " stroke="#000000" stroke-width="4" stroke-opacity="1" stroke-miterlimit="4"/></g><g clip-path="url(#d05149d7fc)"><path stroke-linecap="round" transform="matrix(0.725806, 0, 0, 0.725806, 0.484285, 0.000413037)" fill="none" stroke-linejoin="miter" d="M 2.002208 2.001514 L 38.002035 2.001514 " stroke="#000000" stroke-width="4" stroke-opacity="1" stroke-miterlimit="4"/></g><g clip-path="url(#2cb0352a1d)"><path stroke-linecap="round" transform="matrix(0.725806, 0, 0, 0.725806, 0.484285, 26.129034)" fill="none" stroke-linejoin="miter" d="M 2.002208 2.001907 L 38.002035 2.001907 " stroke="#000000" stroke-width="4" stroke-opacity="1" stroke-miterlimit="4"/></g></svg>